<?xml version="1.0" encoding="utf-8"?>
<!-- Generator: Adobe Illustrator 23.0.0, SVG Export Plug-In . SVG Version: 6.00 Build 0)  -->
<svg version="1.1" id="圖層_1" xmlns="http://www.w3.org/2000/svg" xmlns:xlink="http://www.w3.org/1999/xlink" x="0px" y="0px"
	 viewBox="0 0 164.4 164.4" style="enable-background:new 0 0 164.4 164.4;" xml:space="preserve">
<style type="text/css">
	.st0{fill:none;}
	.st1{fill:#D17A17;}
	.st2{fill:none;stroke:#D17A17;stroke-width:2.4404;stroke-miterlimit:10;}
	.st3{fill:none;stroke:#D17A17;stroke-width:2.3997;stroke-miterlimit:10;}
</style>
<title>bed資產 5</title>
<rect y="0" class="st0" width="164.4" height="164.4"/>
<g>
	<path class="st1" d="M17.9,133.5c0.3-0.8,1.2-1.4,2.1-1.4c0.6,0,1,0.4,1,1c0,0.1,0,0.3-0.1,0.4l-1.2,2.9c-0.2,0.4-0.2,0.8-0.2,1.2
		V158c-0.1,0.8-0.8,1.3-1.6,1.3c-0.7-0.1-1.2-0.6-1.3-1.3v-14l0,0c-0.2,0.4-0.5,0.6-1,0.6H15c-0.5,0-1-0.4-1-1c0-0.1,0-0.3,0.1-0.4
		L17.9,133.5z M33,154.7c0,0.3,0.3,0.6,0.6,0.6H40c0.8-0.1,1.4,0.5,1.5,1.2c0.1,0.8-0.5,1.4-1.2,1.5c-0.1,0-0.2,0-0.3,0H23.2
		c-0.8-0.1-1.3-0.8-1.2-1.5c0.1-0.6,0.6-1.2,1.2-1.2h6.4c0.3,0,0.6-0.3,0.6-0.6l0,0V150c0-0.3-0.2-0.6-0.6-0.6l0,0h-4
		c-0.7,0-1.3-0.6-1.3-1.4l0,0c0-0.8,0.6-1.4,1.3-1.4h4c0.3,0,0.6-0.2,0.6-0.6l0,0v-4.8c0-0.3-0.3-0.6-0.6-0.6l0,0h-5.5
		c-0.8,0.1-1.4-0.5-1.5-1.2c-0.1-0.8,0.5-1.4,1.2-1.5c0.1,0,0.2,0,0.3,0h15c0.8,0.1,1.3,0.8,1.2,1.5c-0.1,0.6-0.6,1.2-1.2,1.2h-5.5
		c-0.3,0-0.6,0.3-0.6,0.6v4.8c0,0.3,0.3,0.6,0.6,0.6l0,0h4c0.8,0,1.4,0.6,1.4,1.4c0,0.8-0.6,1.4-1.4,1.4l0,0h-4
		c-0.4,0-0.6,0.3-0.6,0.6V154.7z M32.8,134.7c0.2,0.5,0,1.1-0.5,1.3c-0.1,0.1-0.3,0.1-0.4,0.1c-1,0-1.8-0.6-2.3-1.4l-0.3-0.5
		c-0.2-0.5-0.1-1.1,0.4-1.3c0.1-0.1,0.3-0.1,0.4-0.1c1,0,1.8,0.6,2.3,1.4L32.8,134.7z"/>
	<path class="st1" d="M49.9,159.3c-2.3,0-4.1-1.8-4.1-4.1c0.1-2.3,2.1-4,4.4-3.9c2.1,0.1,3.7,1.8,3.9,3.9
		C54,157.5,52.2,159.3,49.9,159.3z M49.9,153.6c-0.9,0-1.6,0.7-1.6,1.6c0,0.9,0.7,1.6,1.6,1.6c0.9,0,1.6-0.7,1.6-1.6
		S50.8,153.6,49.9,153.6z"/>
	<path class="st1" d="M70.1,148.3c0.4,0,0.8,0.4,0.8,0.8c0,0.1,0,0.2-0.1,0.3v0.1c0,0.1,0,0.3,0.1,0.3H71h14.7
		c0.6-0.1,1.2,0.4,1.3,1c0.1,0.6-0.4,1.2-1,1.3c-0.1,0-0.2,0-0.3,0H81c-0.4,0-0.7,0.2-0.9,0.5l-1.6,2.6c-0.1,0.2-0.1,0.5,0.2,0.6
		c0,0,0.1,0,0.2,0.1l4.6,1c0.7,0.1,1.1,0.7,1.1,1.4c0,0.5-0.4,0.9-0.9,0.9c-0.1,0-0.1,0-0.2,0l-6.4-1.4c-0.4-0.1-0.8-0.1-1.2,0
		l-11.5,1.8c-0.5,0.1-1.1-0.3-1.1-0.8c0-0.1,0-0.1,0-0.2c0-0.7,0.5-1.2,1.2-1.3l5.3-0.8c0.1,0,0.1-0.2,0-0.2L68,156
		c-1-0.2-1.7-1.2-1.4-2.2c0-0.1,0.1-0.3,0.1-0.4l0.3-0.5c0.1-0.2,0-0.5-0.3-0.5h-0.1h-5.3c-0.6,0.1-1.2-0.4-1.3-1s0.4-1.2,1-1.3
		c0.1,0,0.2,0,0.3,0h6.6c0.2,0,0.4-0.1,0.5-0.3v-0.1C68.7,148.8,69.3,148.3,70.1,148.3z M63.7,144.7c0.4,0,0.7,0.3,0.7,0.7
		c0,0.1,0,0.3-0.1,0.4c-0.5,0.7-1.3,1.1-2.2,1.1h-0.3c-0.4,0-0.7-0.3-0.7-0.7c0-0.2,0-0.3,0.1-0.4c0.5-0.7,1.3-1.1,2.1-1.1H63.7z
		 M69.1,132.1c1.3,0,2.3,1.1,2.3,2.3l0,0v6.7c0,1.3-1,2.3-2.3,2.3l0,0h-5.5c-1.3,0-2.3-1.1-2.3-2.3v-6.7c0-1.3,1-2.3,2.3-2.3H69.1z
		 M69.4,134.6c0-0.3-0.2-0.5-0.4-0.5l0,0h-5.1c-0.3,0-0.5,0.2-0.5,0.5l0,0c0,0.2,0.2,0.4,0.4,0.4l0,0h5.1
		C69.2,135.1,69.4,134.9,69.4,134.6L69.4,134.6z M68.9,138.3c0.2,0,0.4-0.2,0.4-0.4l0,0c0-0.3-0.2-0.5-0.4-0.5l0,0h-5.1
		c-0.3,0-0.5,0.2-0.5,0.5l0,0c0,0.2,0.2,0.4,0.4,0.4l0,0H68.9z M63.4,141c0,0.3,0.2,0.5,0.4,0.5l0,0h5.1c0.3,0,0.5-0.2,0.5-0.5
		s-0.2-0.5-0.5-0.5h-5.1C63.6,140.5,63.4,140.7,63.4,141L63.4,141z M68.5,145.9c-0.2-0.3-0.1-0.8,0.2-1c0.1-0.1,0.2-0.1,0.4-0.1h0.3
		c0.9,0,1.7,0.4,2.1,1.1c0.2,0.3,0.2,0.7-0.1,0.9c-0.1,0.1-0.3,0.1-0.4,0.1h-0.3C69.8,147,69,146.5,68.5,145.9L68.5,145.9z
		 M77.5,152.7c0.1-0.2,0-0.4-0.1-0.5h-0.1h-6.9c-0.4,0-0.7,0.2-0.9,0.6l-0.2,0.5c-0.1,0.3,0,0.6,0.3,0.7c0,0,0,0,0.1,0l5.7,1.2
		c0.4,0.1,0.7-0.1,0.9-0.4L77.5,152.7z M83.5,132c1.3,0,2.3,1.1,2.3,2.3v6.7c0,1.3-1,2.3-2.3,2.3l0,0h-5.4c-1.3,0-2.3-1.1-2.3-2.3
		v-6.7c0-1.3,1.1-2.3,2.3-2.3H83.5z M78.2,144.7c0.4,0,0.7,0.3,0.7,0.7c0,0.1,0,0.3-0.1,0.4c-0.5,0.7-1.3,1.1-2.1,1.1h-0.3
		c-0.4,0-0.7-0.3-0.7-0.7c0-0.2,0-0.3,0.1-0.4c0.5-0.7,1.3-1.1,2.1-1.1H78.2z M83.7,134.6c0-0.3-0.2-0.5-0.4-0.5l0,0h-5.1
		c-0.3,0-0.5,0.2-0.5,0.4l0,0c0,0.2,0.2,0.4,0.4,0.4l0,0h5.1C83.5,135.1,83.7,134.9,83.7,134.6L83.7,134.6z M83.3,138.3
		c0.2,0,0.4-0.2,0.4-0.4l0,0c0-0.3-0.2-0.5-0.4-0.5l0,0h-5.1c-0.3,0-0.5,0.2-0.5,0.4l0,0c0,0.2,0.2,0.4,0.4,0.4l0,0h5.2V138.3z
		 M77.7,141c0,0.3,0.2,0.5,0.4,0.5l0,0h5.1c0.3,0,0.5-0.2,0.5-0.5s-0.2-0.5-0.5-0.5h-5.1C78,140.5,77.8,140.7,77.7,141L77.7,141z
		 M83.9,144.7c0.9,0,1.8,0.4,2.3,1.1c0.2,0.3,0.2,0.7-0.1,0.9c-0.1,0.1-0.3,0.1-0.4,0.1h-0.3c-0.9,0-1.7-0.4-2.3-1.1
		c-0.2-0.3-0.2-0.7,0.1-1c0.1-0.1,0.2-0.1,0.4-0.1h0.3V144.7z"/>
	<path class="st1" d="M109.6,155.5c0,0.4,0.3,0.7,0.7,0.7h6.8c0.7,0,1.2,0.5,1.3,1.2v0.1c0,0.7-0.5,1.2-1.1,1.3h-0.1h-8
		c-1.2,0-2.2-0.9-2.2-2.1c0-0.1,0-0.1,0-0.2v-7.7c0-0.4-0.3-0.7-0.7-0.7h-2.6c-0.4,0-0.8,0.3-0.9,0.7l-3.1,8.7
		c-0.3,0.8-1,1.3-1.9,1.3c-0.5,0-1-0.4-1-0.9c0-0.1,0-0.3,0.1-0.4l3.2-8.7c0.1-0.3-0.1-0.6-0.4-0.7c0,0-0.1,0-0.2,0H97
		c-1.2,0-2.2-0.9-2.2-2.1v-0.1V137c0-1.4,0.8-2.6,2.1-3.1l5-1.9c0.4-0.2,1,0,1.2,0.4c0.1,0.1,0.1,0.3,0.1,0.4c0,0.8-0.5,1.6-1.3,1.9
		l-3.7,1.5c-0.4,0.1-0.7,0.5-0.8,1v1.9c0,0.4,0.5,0.7,0.8,0.7h3.6c0.7,0,1.2,0.5,1.3,1.2v0.1c0,0.7-0.5,1.2-1.2,1.3h-0.1h-3.6
		c-0.4,0-0.7,0.3-0.8,0.7v1.8c0,0.4,0.5,0.7,0.8,0.7H113c0.4,0,0.8-0.4,0.8-0.7v-1.8c-0.1-0.4-0.4-0.7-0.8-0.7h-4.3
		c-0.7,0-1.2-0.5-1.3-1.2v-0.1c0-0.7,0.5-1.2,1.2-1.3h0.1h4.3c0.4,0,0.8-0.4,0.8-0.7v-1.4c-0.1-0.4-0.4-0.8-0.8-0.8h-4.6
		c-0.7,0-1.2-0.5-1.3-1.1v-0.1c0-0.7,0.5-1.3,1.1-1.3h0.1h5.7c1.2,0,2.2,0.9,2.2,2.1v0.1v9.4c0,1.2-0.9,2.2-2.1,2.2H114h-3.7
		c-0.4,0-0.7,0.3-0.7,0.7C109.6,148.9,109.6,155.5,109.6,155.5z"/>
	<path class="st1" d="M140.4,132.9c0,0.2,0.2,0.4,0.4,0.4h8.3c0.8,0,1.4,0.6,1.4,1.4s-0.6,1.4-1.4,1.4l0,0h-19.9
		c-0.3,0-0.6,0.3-0.6,0.6l0,0v5.8l-1.2,14.6c-0.1,0.8-0.7,1.4-1.5,1.4c-0.7,0-1.3-0.6-1.3-1.3c0,0,0,0,0-0.1l1.3-14.7v-6.7
		c0-1.3,1-2.3,2.3-2.3l0,0h9c0.2,0,0.4-0.2,0.4-0.4v-0.2c0-0.8,0.6-1.4,1.4-1.4c0.8,0,1.4,0.6,1.4,1.4L140.4,132.9z M149.7,143.8
		c0,0.8-0.6,1.4-1.4,1.4l0,0h-4.7c-0.2,0-0.3,0.1-0.3,0.3c0,0.1,0,0.1,0.1,0.2l5.4,8.1c0.3,0.4,0.2,1-0.2,1.2
		c-0.1,0.1-0.3,0.1-0.5,0.1c-1,0-2-0.5-2.6-1.4l-3.8-5.5c-0.1-0.1-0.2-0.1-0.3-0.1s-0.1,0.1-0.1,0.1v8.6c0.1,0.8-0.5,1.4-1.2,1.5
		c-0.8,0.1-1.4-0.5-1.5-1.2c0-0.1,0-0.2,0-0.3v-8.5c0-0.2-0.3-0.2-0.4-0.1l-3.4,5.3c-0.6,0.9-1.5,1.4-2.5,1.4
		c-0.5,0-0.9-0.4-0.9-0.9c0-0.2,0-0.3,0.1-0.5l5.4-8.1c0.1-0.1,0.1-0.3-0.1-0.4c-0.1,0-0.1-0.1-0.2-0.1h-4.8c-0.8,0-1.4-0.6-1.4-1.4
		l0,0c0-0.7,0.6-1.3,1.4-1.3h6.2c0.3,0,0.6-0.3,0.6-0.6v-1.9c0.1-0.8,0.8-1.3,1.5-1.2c0.6,0.1,1.1,0.6,1.2,1.2v1.9
		c0,0.3,0.3,0.6,0.6,0.6h6.3C149.1,142.5,149.7,143.1,149.7,143.8z"/>
</g>
<g>
	<path class="st2" d="M102.1,71.5C90.4,78,75.5,73.6,69,61.9c-2.9-5.3-3.6-11.1-2.5-16.6c-7.6,7.5-9.6,19.3-4.3,29.1
		c6.5,11.7,21.3,16,33,9.5c6.5-3.6,10.7-9.8,12.2-16.5C105.9,69,104.1,70.3,102.1,71.5z"/>
	<g>
		<path class="st3" d="M138.9,27.4c0-3.2-2.6-5.8-5.8-5.8s-5.8,2.6-5.8,5.8c0,2.2,1.2,4.2,3.2,5.2v14.2c-27.8-23.4-68.6-23.4-96.4,0
			V32.4c2.9-1.4,4-5,2.5-7.8c-1.5-2.9-5-4-7.8-2.5c-2.9,1.4-4,5-2.5,7.8c0.6,1.1,1.4,2,2.5,2.5v77.4c0,0.3,0.2,0.6,0.6,0.6l0,0h4.1
			c0.3,0,0.6-0.2,0.6-0.6l0,0V99h96.4v10.7c0,0.3,0.2,0.6,0.6,0.6l0,0h4.1c0.3,0,0.6-0.2,0.6-0.6l0,0V32.6
			C137.6,31.6,138.9,29.6,138.9,27.4z M34,93.2V54.6c26.8-26.2,69.6-26.2,96.4,0v38.6H34z"/>
		<line class="st3" x1="43.1" y1="47.2" x2="43.1" y2="93.3"/>
		<line class="st3" x1="47.5" y1="93.3" x2="47.5" y2="44.4"/>
		<line class="st3" x1="57.9" y1="39.5" x2="57.9" y2="93.3"/>
		<line class="st3" x1="62.3" y1="50.6" x2="62.3" y2="38.1"/>
		<path class="st3" d="M62.3,50.6"/>
		<line class="st3" x1="62.3" y1="93.3" x2="62.3" y2="74.7"/>
		<line class="st3" x1="72.6" y1="84.2" x2="72.6" y2="93.3"/>
		<line class="st3" x1="72.6" y1="35.7" x2="72.6" y2="67.1"/>
		<line class="st3" x1="77" y1="70.7" x2="77" y2="35.3"/>
		<line class="st3" x1="77" y1="93.3" x2="77" y2="85.8"/>
		<line class="st3" x1="87.4" y1="86.6" x2="87.4" y2="93.3"/>
		<line class="st3" x1="87.4" y1="35.3" x2="87.4" y2="74.2"/>
		<line class="st3" x1="91.8" y1="74.2" x2="91.8" y2="35.7"/>
		<polyline class="st3" points="91.8,93.3 91.8,85.2 91.8,84.9 		"/>
		<line class="st3" x1="102.1" y1="78" x2="102.1" y2="93.3"/>
		<line class="st3" x1="102.1" y1="38" x2="102.1" y2="71.2"/>
		<line class="st3" x1="106.5" y1="93.3" x2="106.5" y2="39.5"/>
		<line class="st3" x1="116.9" y1="44.4" x2="116.9" y2="93.3"/>
		<line class="st3" x1="121.3" y1="93.3" x2="121.3" y2="47.2"/>
	</g>
</g>
</svg>
