<?xml version="1.0" encoding="utf-8"?>
<!-- Generator: Adobe Illustrator 23.0.0, SVG Export Plug-In . SVG Version: 6.00 Build 0)  -->
<svg version="1.1" id="圖層_1" xmlns="http://www.w3.org/2000/svg" xmlns:xlink="http://www.w3.org/1999/xlink" x="0px" y="0px"
	 viewBox="0 0 164.4 164.4" style="enable-background:new 0 0 164.4 164.4;" xml:space="preserve">
<style type="text/css">
	.st0{fill:none;}
	.st1{fill:none;stroke:#D17A17;stroke-width:3;stroke-miterlimit:10;}
	.st2{fill:none;stroke:#D17A17;stroke-miterlimit:10;}
	.st3{fill:none;stroke:#D17A17;stroke-width:3.0672;stroke-miterlimit:10;}
	.st4{fill:#D17A17;}
</style>
<title>car資產 1</title>
<g>
	<g id="圖層_1-2">
		<rect y="0" class="st0" width="164.4" height="164.4"/>
		<path class="st1" d="M89.4,104.3H57.9"/>
		<path class="st1" d="M32.3,94c-4.2-5-6.7-11.4-6.7-18.4V57.7h-0.1H122h0.6v17.9c0,7.4-2.8,14.1-7.3,19.1"/>
		<g>
			<g>
				<circle class="st1" cx="43.9" cy="101.8" r="14"/>
				<circle class="st2" cx="43.9" cy="101.8" r="9.7"/>
				<circle class="st1" cx="43.9" cy="101.8" r="4.7"/>
			</g>
			<g>
				<circle class="st1" cx="103.2" cy="101.8" r="14"/>
				<circle class="st2" cx="103.2" cy="101.8" r="9.7"/>
				<circle class="st1" cx="103.2" cy="101.8" r="4.7"/>
			</g>
		</g>
		<path class="st1" d="M58.9,16h15c0.7,0,1.3,0.6,1.3,1.3v40.2l0,0H25.5l0,0v-8.2C25.5,30.9,40.5,16,58.9,16L58.9,16z"/>
		<g>
			<path class="st1" d="M81.5,42c0-2.9-2.8-5.2-6.3-5.2v10.3C78.7,47.2,81.5,44.9,81.5,42z"/>
			<path class="st1" d="M81.5,52.4c0-2.9-2.8-5.2-6.3-5.2v10.3C78.7,57.5,81.5,55.2,81.5,52.4z"/>
			<path class="st1" d="M81.5,21.4c0-2.9-2.8-5.2-6.3-5.2v10.3C78.7,26.6,81.5,24.2,81.5,21.4z"/>
			<path class="st1" d="M81.5,31.7c0-2.9-2.8-5.2-6.3-5.2v10.3C78.7,36.9,81.5,34.6,81.5,31.7z"/>
		</g>
		<g>
			<path class="st1" d="M67.6,65c3.3,0,6-3.2,6-7h-12C61.6,61.9,64.3,65,67.6,65z"/>
			<path class="st1" d="M55.6,65c3.3,0,6-3.2,6-7H49.7C49.6,61.9,52.3,65,55.6,65z"/>
			<path class="st1" d="M43.6,65c3.3,0,6-3.2,6-7h-12C37.6,61.9,40.3,65,43.6,65z"/>
			<path class="st1" d="M31.6,65c3.3,0,6-3.2,6-7H25.7C25.6,61.9,28.3,65,31.6,65z"/>
			<path class="st1" d="M91.6,65c3.3,0,6-3.2,6-7H85.7C85.6,61.9,88.3,65,91.6,65z"/>
			<path class="st1" d="M79.6,65c3.3,0,6-3.2,6-7h-12C73.6,61.9,76.3,65,79.6,65z"/>
			<path class="st1" d="M116,65c3.3,0,6-3.2,6-7h-11.9C110,61.9,112.7,65,116,65z"/>
			<path class="st1" d="M104,65c3.3,0,6-3.2,6-7H98C98,61.9,100.7,65,104,65z"/>
		</g>
		<g>
			<circle class="st1" cx="134.2" cy="33" r="4.7"/>
			<path class="st3" d="M109.4,56.9c0-12.5,7.5-21.9,20.1-25.1"/>
			<path class="st1" d="M116.8,58c-1.1-11.1,4.8-18.8,15.8-20.7"/>
		</g>
		<path class="st4" d="M19.6,132.2c0.5,0,0.9,0.4,0.9,0.9c0,0.2-0.1,0.3-0.1,0.5l-3.6,5.2c-0.6,0.9-1.5,1.4-2.6,1.4
			c-0.5,0-0.9-0.4-0.9-0.9c0-0.2,0.1-0.3,0.1-0.5l3.5-5.2C17.5,132.7,18.5,132.2,19.6,132.2z M18.1,140.7c0.6-0.9,1.6-1.4,2.6-1.4
			c0.5,0,0.9,0.4,0.9,0.9c0,0.2-0.1,0.3-0.1,0.5l-1.2,1.7c-0.2,0.3-0.4,0.7-0.4,1.1v14.1c0,0.8-0.6,1.4-1.4,1.4s-1.4-0.6-1.4-1.4
			v-10.2c0-0.1-0.2-0.2-0.3-0.1c-0.5,0.8-1.4,1.2-2.3,1.3h-0.2c-0.5,0-0.9-0.4-0.9-0.9c0-0.2,0.1-0.4,0.2-0.5L18.1,140.7z
			 M39.3,140.5c0.8,0,1.4,0.6,1.4,1.4v0.1c0,0.8-0.6,1.4-1.4,1.4c0,0,0,0-0.1,0h-4c-0.3,0-0.6,0.3-0.6,0.6v13.7
			c-0.1,0.8-0.7,1.3-1.5,1.3c-0.7-0.1-1.2-0.6-1.3-1.3V144c0-0.4-0.3-0.6-0.6-0.6h-5.9c-0.8,0-1.4-0.6-1.4-1.4
			c0-0.8,0.6-1.4,1.4-1.4L39.3,140.5z M38.4,132.8c0.8,0,1.4,0.6,1.4,1.4c0,0.8-0.6,1.4-1.4,1.4l0,0H27c-0.8,0-1.4-0.6-1.4-1.4
			c0-0.8,0.6-1.4,1.4-1.4H38.4z"/>
		<path class="st4" d="M49.3,159.3c-2.3,0-4.1-1.8-4.2-4.1c0-2.3,1.9-4.1,4.2-4.1s4.1,1.9,4.1,4.1C53.4,157.5,51.6,159.3,49.3,159.3
			z M49.3,153.6c-0.9-0.1-1.7,0.6-1.7,1.5c-0.1,0.9,0.6,1.7,1.5,1.7c0.1,0,0.2,0,0.3,0c0.9,0.1,1.7-0.6,1.7-1.5
			c0.1-0.9-0.6-1.7-1.5-1.7C49.5,153.6,49.4,153.6,49.3,153.6z"/>
		<path class="st4" d="M71.2,148.3c0.5,0,0.8,0.4,0.8,0.8c0,0.1,0,0.2-0.1,0.3l-0.1,0.1c0,0.1,0,0.3,0.1,0.3H72h14.8
			c0.6,0,1.2,0.5,1.2,1.2s-0.5,1.2-1.2,1.2H82c-0.4,0-0.7,0.2-0.9,0.6l-1.6,2.6c-0.1,0.2-0.1,0.5,0.1,0.6c0,0,0.1,0,0.1,0.1l4.6,1
			c0.7,0.1,1.1,0.7,1.1,1.4c0,0.5-0.4,0.9-0.9,0.9c-0.1,0-0.1,0-0.2,0l-6.4-1.4c-0.4-0.1-0.8-0.1-1.2,0l-11.6,1.8
			c-0.5,0.1-1.1-0.3-1.1-0.8c0-0.1,0-0.1,0-0.2c0-0.7,0.5-1.2,1.2-1.4l5.3-0.8c0.1,0,0.1-0.2,0-0.2L69,156c-1-0.2-1.7-1.2-1.5-2.2
			c0-0.1,0.1-0.3,0.1-0.4l0.3-0.6c0.1-0.2,0-0.5-0.3-0.6h-0.1h-5.3c-0.6,0-1.2-0.5-1.2-1.2s0.5-1.2,1.2-1.2h6.6
			c0.2,0,0.4-0.1,0.5-0.3l0.1-0.1C69.8,148.7,70.4,148.3,71.2,148.3z M64.7,144.7c0.4,0,0.7,0.3,0.7,0.7c0,0.1,0,0.3-0.1,0.4
			c-0.5,0.7-1.3,1.1-2.2,1.1h-0.3c-0.4,0-0.7-0.3-0.7-0.6c0-0.2,0-0.3,0.1-0.4c0.5-0.7,1.3-1.1,2.1-1.1L64.7,144.7L64.7,144.7z
			 M70.2,132c1.3,0,2.3,1.1,2.3,2.4v6.7c0,1.3-1,2.3-2.3,2.3l0,0h-5.5c-1.3,0-2.3-1.1-2.3-2.4v-6.7c0-1.3,1.1-2.3,2.3-2.4L70.2,132
			L70.2,132z M70.4,134.6c0-0.3-0.2-0.5-0.4-0.5l0,0h-5.2c-0.3,0-0.5,0.2-0.4,0.5c0,0.2,0.2,0.4,0.4,0.4l0,0H70
			C70.2,135,70.4,134.9,70.4,134.6L70.4,134.6z M70,138.2c0.2,0,0.4-0.2,0.4-0.4l0,0c0-0.3-0.2-0.5-0.4-0.5l0,0h-5.2
			c-0.3,0-0.5,0.2-0.4,0.5c0,0.2,0.2,0.4,0.4,0.4l0,0H70z M64.4,140.9c0,0.3,0.2,0.5,0.4,0.5H70c0.3,0,0.5-0.2,0.5-0.5
			s-0.2-0.5-0.5-0.5h-5.2C64.6,140.4,64.4,140.6,64.4,140.9L64.4,140.9L64.4,140.9z M69.5,145.8c-0.2-0.3-0.1-0.7,0.2-1
			c0.1-0.1,0.2-0.1,0.4-0.1h0.3c0.9,0,1.7,0.4,2.2,1.1c0.2,0.3,0.2,0.7-0.1,0.9c-0.1,0.1-0.3,0.2-0.4,0.1h-0.3
			C70.8,146.9,70,146.5,69.5,145.8L69.5,145.8z M78.5,152.7c0.1-0.2,0-0.4-0.1-0.5h-0.1h-6.9c-0.4,0-0.7,0.2-0.9,0.6l-0.2,0.5
			c-0.1,0.3,0,0.6,0.3,0.7h0.1l5.7,1.2c0.4,0.1,0.7-0.1,0.9-0.4L78.5,152.7z M84.5,132c1.3,0,2.3,1.1,2.3,2.4v6.7
			c0,1.3-1.1,2.3-2.3,2.4H79c-1.3,0-2.3-1.1-2.3-2.4v-6.7c0-1.3,1.1-2.3,2.3-2.4H84.5z M79.3,144.7c0.4,0,0.7,0.3,0.7,0.7
			c0,0.1,0,0.3-0.1,0.4c-0.5,0.7-1.3,1.1-2.1,1.1h-0.3c-0.4,0-0.7-0.3-0.7-0.6c0-0.2,0-0.3,0.1-0.4c0.5-0.7,1.3-1.1,2.2-1.1
			L79.3,144.7L79.3,144.7z M84.8,134.6c0-0.3-0.2-0.5-0.4-0.5h-5.1c-0.3,0-0.5,0.2-0.5,0.4l0,0c0,0.2,0.2,0.5,0.4,0.5l0,0h5.1
			C84.6,135.1,84.8,134.9,84.8,134.6L84.8,134.6z M84.4,138.2c0.2,0,0.4-0.2,0.4-0.4l0,0c0-0.3-0.2-0.5-0.4-0.5h-5.1
			c-0.3,0-0.5,0.2-0.5,0.4l0,0c0,0.2,0.2,0.5,0.4,0.5l0,0H84.4z M78.8,140.9c0,0.3,0.2,0.5,0.5,0.5l0,0h5.1c0.3,0,0.5-0.2,0.5-0.5
			s-0.2-0.5-0.5-0.5h-5.1C79,140.4,78.8,140.6,78.8,140.9C78.8,140.8,78.8,140.9,78.8,140.9z M85,144.7c0.9,0,1.8,0.4,2.3,1.1
			c0.2,0.3,0.2,0.7-0.1,1c-0.1,0.1-0.2,0.1-0.4,0.1h-0.3c-0.9,0-1.7-0.4-2.3-1.1c-0.2-0.3-0.2-0.7,0.1-0.9c0.1-0.1,0.3-0.1,0.4-0.1
			H85V144.7z"/>
		<path class="st4" d="M110.8,155.5c0,0.4,0.3,0.7,0.7,0.7h6.8c0.7,0,1.3,0.5,1.3,1.2v0.1c0,0.7-0.5,1.3-1.1,1.3h-0.1h-7.9
			c-1.2,0-2.2-0.9-2.2-2.1v-0.1v-7.7c0-0.4-0.3-0.7-0.7-0.7h-2.8c-0.4,0-0.8,0.3-0.9,0.7l-3.1,8.7c-0.3,0.8-1,1.3-1.9,1.3
			c-0.6,0-1-0.4-1.1-0.9c0-0.1,0-0.3,0.1-0.4l3.2-8.7c0.1-0.3-0.1-0.6-0.4-0.7c0,0-0.1,0-0.2,0h-2.3c-1.2,0-2.2-0.9-2.2-2.1V146v-9
			c0-1.4,0.8-2.6,2.1-3.1l5-1.9c0.4-0.2,1,0,1.2,0.4c0.1,0.1,0.1,0.3,0.1,0.4c0,0.8-0.5,1.6-1.3,1.9l-3.8,1.5
			c-0.4,0.1-0.7,0.5-0.8,1v1.9c0,0.4,0.5,0.7,0.8,0.7h3.6c0.7,0,1.2,0.5,1.3,1.2v0.1c0,0.7-0.5,1.2-1.2,1.3h-0.1h-3.6
			c-0.4,0-0.8,0.3-0.8,0.7v1.8c0,0.4,0.5,0.7,0.8,0.7h14.9c0.3,0,0.8-0.4,0.8-0.7v-1.8c-0.1-0.4-0.4-0.7-0.8-0.7h-4.3
			c-0.7,0-1.2-0.5-1.3-1.1v-0.1c0-0.7,0.5-1.2,1.2-1.3h0.1h4.3c0.3,0,0.8-0.4,0.8-0.7v-1.4c-0.1-0.4-0.4-0.8-0.8-0.8h-4.6
			c-0.7,0-1.2-0.5-1.3-1.1v-0.1c0-0.7,0.5-1.3,1.2-1.3h0.1h5.7c1.2,0,2.2,0.9,2.3,2.2v0.1v9.4c0,1.2-0.9,2.2-2.1,2.2h-0.1h-3.7
			c-0.4,0-0.7,0.4-0.7,0.7L110.8,155.5z"/>
		<path class="st4" d="M151.1,134.8c0,0.7-0.6,1.3-1.3,1.3l0,0h-9.2c-0.4,0-0.6,0.3-0.6,0.6v1.2c0,0.4,0.3,0.6,0.6,0.6h6.3
			c1.3,0,2.3,1,2.3,2.3c0,0,0,0,0,0.1v7.3c0,1.3-1,2.3-2.2,2.3c0,0,0,0-0.1,0h-6.3c-0.4,0-0.6,0.3-0.6,0.6v1.4
			c0,0.4,0.3,0.7,0.6,0.7h9.2c0.7,0,1.3,0.6,1.3,1.3l0,0c0,0.7-0.5,1.3-1.2,1.4h-0.1h-9.2c-0.4,0-0.6,0.3-0.6,0.6v1.2
			c0,0.7-0.6,1.3-1.3,1.3l0,0c-0.7,0-1.3-0.5-1.3-1.2c0,0,0,0,0-0.1v-1.2c0-0.4-0.3-0.7-0.7-0.6h-9.2c-0.7,0-1.3-0.6-1.3-1.3
			c0,0,0,0,0-0.1c0-0.7,0.6-1.3,1.3-1.4h9.2c0.4,0,0.7-0.3,0.7-0.7V151c0-0.4-0.3-0.6-0.7-0.6h-6.3c-1.3,0-2.3-1-2.3-2.2
			c0,0,0,0,0-0.1V141c0-1.3,1-2.3,2.2-2.3c0,0,0,0,0.1,0h6.3c0.4,0,0.6-0.3,0.7-0.6v-1.2c0-0.4-0.3-0.6-0.7-0.6h-9.2
			c-0.7,0-1.3-0.6-1.3-1.3s0.6-1.3,1.3-1.3h9.4c0.3,0,0.5-0.2,0.5-0.5v-0.4c0-0.7,0.5-1.3,1.2-1.3c0,0,0,0,0.1,0
			c0.7,0,1.3,0.6,1.3,1.3l0,0v0.3c0,0.3,0.2,0.5,0.5,0.5h9.4C150.5,133.5,151.1,134.1,151.1,134.8L151.1,134.8z M137.3,141.8
			c0-0.4-0.3-0.6-0.7-0.6h-5.3c-0.4,0-0.6,0.3-0.6,0.6v0.8c0,0.4,0.3,0.6,0.6,0.6h5.3c0.4,0,0.6-0.3,0.7-0.6V141.8z M130.7,147.3
			c0,0.4,0.3,0.6,0.6,0.6h5.3c0.4,0,0.6-0.3,0.7-0.6v-0.8c0-0.4-0.3-0.6-0.7-0.6h-5.3c-0.4,0-0.6,0.3-0.6,0.6V147.3z M146.5,141.8
			c0-0.4-0.3-0.6-0.6-0.6h-5.3c-0.4,0-0.6,0.3-0.6,0.6v0.8c0,0.4,0.3,0.6,0.6,0.6h5.3c0.3,0,0.6-0.3,0.6-0.6V141.8z M139.9,147.3
			c0,0.4,0.3,0.6,0.6,0.6h5.3c0.4,0,0.6-0.3,0.6-0.6v-0.8c0-0.3-0.3-0.6-0.6-0.6h-5.3c-0.4,0-0.6,0.3-0.6,0.6V147.3z"/>
	</g>
</g>
</svg>
