<?xml version="1.0" encoding="utf-8"?>
<!-- Generator: Adobe Illustrator 23.0.0, SVG Export Plug-In . SVG Version: 6.00 Build 0)  -->
<svg version="1.1" id="圖層_1" xmlns="http://www.w3.org/2000/svg" xmlns:xlink="http://www.w3.org/1999/xlink" x="0px" y="0px"
	 viewBox="0 0 164.4 164.4" style="enable-background:new 0 0 164.4 164.4;" xml:space="preserve">
<style type="text/css">
	.st0{fill:none;stroke:#D17A17;stroke-width:3;stroke-miterlimit:10;}
	.st1{fill:none;stroke:#D17A17;stroke-width:3.1728;stroke-miterlimit:10;}
	.st2{fill:none;stroke:#D17A17;stroke-width:1.0576;stroke-miterlimit:10;}
	.st3{fill:#D17A17;}
	.st4{fill:none;}
</style>
<line class="st0" x1="35.6" y1="47.5" x2="128.5" y2="47.5"/>
<title>clotes資產 1</title>
<g>
	<path class="st0" d="M52.3,37.2c-1.6-4-3-9.4-6.2-12.3c-3-2.6-7-3-10.7-1.6c-5.8,2.8-4.6,10.4-1.8,14.7c1.4,2.2,2.8,4.2,4.4,6.2"/>
	<path class="st0" d="M112.4,37.2c1.6-4,3-9.4,6.2-12.3c3-2.6,7.2-3,10.8-1.6c5.8,2.8,4.6,10.4,1.8,14.7c-1.4,2.2-2.8,4.2-4.4,6.2"
		/>
	<path class="st0" d="M86.2,33.7c8.2,0,30.9,3.2,37.3,8.2c6.4,5,9.8,13,13,25.9s3.2,30.9,0,37.3s-8.2,8.2-8.2,8.2H36
		c0,0-5-1.6-8.2-8.2s-3.2-24.3,0-37.3s6.6-21.1,13-25.9s29.2-8.2,37.3-8.2H86.2z"/>
	<g>
		<path class="st1" d="M110.5,63.1c0-5.7-3.8-10.2-8.7-10.2c-3.8,0-7,2.7-8.2,7c-7.4-2.7-15.5-2.7-22.8,0c-1.1-4-4.4-7-8.2-7
			c-4.9,0-8.7,4.4-8.7,10.2c0,3.2,1.1,5.9,3.4,8c-1.7,3-2.5,6.3-2.5,9.9c0,13,12.3,23.5,27.4,23.5s27.6-10.4,27.6-23.3
			c0-3.6-0.8-7-2.5-9.9C109.4,69.3,110.6,66.3,110.5,63.1z"/>
		<path class="st2" d="M59.6,58.5c-2.3,1.9-1.7,4.9-0.8,7.4c0.2,0.8,1.2,1.1,1.9,0.8c0.2-0.1,4.4-2.8,5.7-3.8
			c0.5-0.4,0.7-1.1,0.6-1.5C66.5,58.7,61.3,57,59.6,58.5z"/>
		<path class="st2" d="M105.4,58.5c2.2,2,1.7,4.9,0.8,7.4c-0.2,0.8-1.3,1.3-1.9,0.8c-0.3-0.2-5.8-3.8-5.8-3.8
			c-0.6-0.5-0.7-1.1-0.6-1.5C98.3,58.7,103.1,56.5,105.4,58.5z"/>
		<ellipse class="st2" cx="82.4" cy="89" rx="9.5" ry="7.8"/>
		<line class="st2" x1="82.4" y1="84.9" x2="82.4" y2="89.6"/>
		<circle class="st3" cx="73.1" cy="77" r="1.5"/>
		<circle class="st2" cx="63.1" cy="85.1" r="2.1"/>
		<circle class="st2" cx="101.1" cy="85.3" r="2.1"/>
		<circle class="st3" cx="91.5" cy="77.3" r="1.5"/>
		<circle class="st3" cx="82.4" cy="84.1" r="1.4"/>
	</g>
</g>
<g>
	<path class="st3" d="M50.5,136.4c0,0.8-0.5,1.4-1.2,1.5c0,0,0,0-0.1,0h-11c-0.3,0-0.4,0.1-0.4,0.4c0,0.1,0,0.1,0,0.1l3.1,5.7
		c0.1,0.3,0.5,0.4,0.8,0.1l0,0l0.4-0.3c1.2-0.9,2.7-1.4,4.2-1.4c0.4,0.1,0.7,0.5,0.7,0.9c0,0.1-0.1,0.3-0.1,0.4l-3.7,2.8
		c-0.3,0.3-0.4,0.7-0.3,0.9l5.3,9.6c0.3,0.4,0,1.1-0.4,1.2c-0.1,0-0.3,0.1-0.4,0.1c-0.9,0-1.9-0.5-2.4-1.4l-9.6-17.5
		c-0.1-0.3-0.4-0.3-0.5-0.1c0,0-0.1,0-0.1,0.1l-2.6,2.7c-0.3,0.3-0.4,0.7-0.4,1.1V154c0,0.3,0.1,0.5,0.4,0.5h0.1l2.8-0.8
		c0.5-0.1,1.2,0.1,1.4,0.7c0,0.1,0,0.3,0,0.3c0,0.9-0.5,1.6-1.5,1.9l-3.9,1.1c-0.9,0.3-1.9-0.3-2.2-1.2c0-0.1-0.1-0.4-0.1-0.5v-9.8
		c0-0.1,0-0.3-0.1-0.3s-0.3,0-0.3,0.1l-0.3,0.1c-0.9,0.9-2.2,1.5-3.4,1.5c-0.4,0-0.8-0.4-0.8-0.9c0-0.1,0.1-0.3,0.1-0.4l8.1-8.4
		c0.1-0.1,0.1-0.3,0-0.4c0-0.1-0.1-0.1-0.3-0.1h-8.5c-0.8,0-1.5-0.7-1.5-1.5s0.7-1.5,1.5-1.5h10.9c0.3,0,0.5-0.3,0.7-0.5l0,0v-1.4
		c0.1-0.8,0.8-1.4,1.6-1.4c0.7,0,1.2,0.7,1.4,1.4v1.4c0,0.3,0.3,0.7,0.5,0.7l0,0h10.9C49.8,134.9,50.5,135.6,50.5,136.4
		C50.5,136.2,50.5,136.2,50.5,136.4z"/>
	<path class="st3" d="M62.4,159.3c-2.3,0-4.2-1.9-4.2-4.2s1.9-4.2,4.2-4.2c2.3,0,4.2,1.9,4.2,4.2C66.6,157.5,64.7,159.3,62.4,159.3z
		 M62.4,153.5c-0.9-0.1-1.6,0.5-1.8,1.5c-0.1,0.9,0.5,1.6,1.5,1.8c0.1,0,0.1,0,0.3,0c0.9,0.1,1.6-0.5,1.8-1.5
		c0.1-0.9-0.5-1.6-1.5-1.8C62.7,153.5,62.5,153.5,62.4,153.5z"/>
	<path class="st3" d="M79.8,159.4c-0.7,0-1.2-0.4-1.2-1.1v-0.1l0.9-24.1c0-1.2,1.1-2.3,2.3-2.3l0,0H86c1.2,0,2.3,0.9,2.3,2.2v0.1
		v24.1c0,0.7-0.5,1.2-1.1,1.2h-0.1c-0.7,0-1.2-0.4-1.2-1.1v-0.1v-8.1c0-0.4-0.4-0.7-0.8-0.7h-3c-0.4,0-0.7,0.3-0.7,0.7l-0.3,8.1
		C81,158.9,80.4,159.4,79.8,159.4L79.8,159.4z M81.5,146c0,0.4,0.4,0.7,0.7,0.7H85c0.4,0,0.7-0.4,0.8-0.8v-3.7
		c0-0.4-0.4-0.7-0.8-0.8h-2.6c-0.4,0-0.7,0.4-0.8,0.8L81.5,146z M85.7,134.9c0-0.4-0.4-0.7-0.8-0.8h-2.3c-0.4,0-0.7,0.4-0.7,0.8
		l-0.1,3.1c0,0.4,0.4,0.7,0.7,0.7h2.4c0.4,0,0.7-0.3,0.8-0.7V134.9z M105.7,157.5c0.3,0.4,0.1,0.8-0.3,1.1c-0.1,0.1-0.3,0.1-0.5,0.1
		c-0.9,0-1.9-0.5-2.4-1.4l-1.6-2.4c-0.3-0.3-0.5-0.3-0.8,0L100,155l-1.2,2.4c-0.4,0.8-1.4,1.4-2.3,1.4c-0.5,0-0.9-0.4-0.9-0.8
		c0-0.1,0-0.4,0.1-0.5l3-5.7c0-0.1,0-0.1,0-0.3v-0.1l-2.4-4.9c-0.3-0.4-0.1-0.9,0.4-1.2c0.1-0.1,0.3-0.1,0.4-0.1
		c0.9,0,1.8,0.5,2.2,1.4l0.1,0.4c0.1,0.3,0.5,0.3,0.5,0l0.8-2.2c0-0.4-0.1-0.7-0.5-0.7c0,0,0,0-0.1,0h-5.4c-0.4,0-0.7,0.4-0.8,0.8
		v13.4c-0.1,0.7-0.9,1.2-1.6,0.9c-0.5-0.1-0.8-0.5-0.9-0.9V134c0-1.2,0.9-2.3,2.2-2.3h0.1h8.8c1.1,0,1.9,0.8,2,1.9
		c0,0.1,0,0.3,0,0.4l-0.3,1.6c-0.1,0.8-0.7,1.4-1.5,1.5c-0.7,0-1.2-0.5-1.2-1.2v-0.1l0.1-0.7c0-0.3-0.1-0.5-0.4-0.7c0,0,0,0-0.1,0
		h-6.2c-0.4,0-0.7,0.4-0.8,0.8v5.7c0,0.4,0.4,0.7,0.8,0.7h7.6c0.9,0,1.8,0.7,1.8,1.6c0,0.3,0,0.4-0.1,0.7l-2.2,7.5
		c0,0.1,0,0.1,0,0.3c0,0.1,0.1,0.3,0.1,0.3L105.7,157.5z"/>
	<path class="st3" d="M114.4,145c-0.5,0-0.9-0.4-0.9-0.9c0-0.1,0-0.3,0-0.4l0.7-2.4c0-0.1-0.1-0.4-0.4-0.4h-0.1
		c-0.7,0-1.2-0.5-1.2-1.2v-0.1c0-0.7,0.5-1.2,1.2-1.2h0.1h4.7c0.4,0,0.7-0.3,0.7-0.7v-0.1c0-0.4-0.3-0.7-0.7-0.7h-2.8
		c-1.2,0-2.3-1.1-2.3-2.3l0,0v-1.8c0-0.7,0.5-1.2,1.2-1.2c0,0,0,0,0.1,0c0.7,0,1.2,0.5,1.2,1.2c0,0,0,0,0,0.1v0.9
		c0,0.4,0.3,0.7,0.7,0.7h1.9c0.4,0,0.7-0.3,0.7-0.7v-1.5c0-0.7,0.5-1.2,1.2-1.2c0,0,0,0,0.1,0c0.7,0,1.2,0.5,1.2,1.2c0,0,0,0,0,0.1
		V144c0,0.7-0.5,1.2-1.2,1.2c0,0,0,0-0.1,0c-0.7,0-1.2-0.5-1.2-1.2c0,0,0,0,0-0.1V142c0-0.4-0.3-0.7-0.7-0.7h-0.7
		c-0.4,0-0.8,0.3-0.9,0.7l-0.5,2.2C115.8,144.6,115.2,145,114.4,145z M138.1,148.4c0,0.7-0.5,1.2-1.2,1.2l0,0h-9
		c-0.3,0-0.4,0.4-0.3,0.5l2.3,2.4c0.3,0.3,0.5,0.3,0.8,0c0.9-0.8,2.2-1.2,3.3-1.2h0.3c0.4,0,0.7,0.3,0.7,0.7c0,0.3-0.1,0.4-0.3,0.5
		l-2.2,1.8c-0.3,0.3-0.3,0.7,0,1.1l2.6,2.7c0.3,0.3,0.3,0.7,0,0.9c-0.1,0.1-0.3,0.3-0.5,0.3c-1.2,0-2.3-0.5-3.1-1.4l-7.3-7.9
		c-0.3-0.3-0.8-0.3-1.1,0l-1.5,1.1c-0.3,0.3-0.5,0.7-0.5,1.1v3.1c0,0.4,0.3,0.5,0.7,0.5l0,0l1.6-0.3c0.5-0.1,1.1,0.1,1.4,0.7
		c0,0.1,0,0.3,0,0.4c0,0.8-0.5,1.5-1.4,1.5l-2.6,0.4c-1.1,0.1-2-0.5-2.2-1.5c0-0.1,0-0.3,0-0.5v-2.6c0-0.3-0.1-0.4-0.4-0.4
		c-0.1,0-0.1,0-0.1,0c-1.1,0.8-2.4,1.2-3.8,1.2h-0.1c-0.4,0-0.7-0.3-0.7-0.7c0-0.3,0.1-0.4,0.3-0.5l5.3-3.9c0.1-0.1,0.1-0.5-0.1-0.5
		h-5.3c-0.7,0.1-1.4-0.4-1.4-1.1c0-0.7,0.4-1.4,1.1-1.4c0.1,0,0.1,0,0.3,0h9.8c0.3,0,0.5-0.3,0.5-0.5v-0.5c0-0.7,0.5-1.2,1.2-1.2
		s1.2,0.5,1.2,1.2v0.5c0,0.3,0.3,0.5,0.5,0.5h9.8C137.5,147.1,138.1,147.6,138.1,148.4C138.1,148.3,138.1,148.4,138.1,148.4z
		 M128.6,141.1c0.4,0,0.7-0.4,0.7-0.7v-2.2c0-0.4-0.3-0.7-0.7-0.7h-4.3c-0.7-0.3-1.1-0.9-0.9-1.8c0.1-0.4,0.4-0.8,0.9-0.9h4.2
		c0.4,0,0.7-0.3,0.7-0.7v-1.9c0-0.7,0.5-1.2,1.2-1.2c0,0,0,0,0.1,0c0.7,0,1.4,0.5,1.4,1.2c0,0,0,0,0,0.1v1.9c0,0.4,0.3,0.7,0.7,0.7
		h4.3c0.7,0.3,1.1,0.9,0.9,1.8c-0.1,0.4-0.4,0.8-0.9,0.9h-4.3c-0.4,0-0.7,0.3-0.7,0.7v2.2c0,0.4,0.3,0.7,0.7,0.7h3.1
		c0.7,0,1.2,0.5,1.2,1.2s-0.5,1.2-1.2,1.2h-10c-0.7,0-1.2-0.5-1.2-1.2s0.5-1.2,1.2-1.2l0,0h3L128.6,141.1L128.6,141.1z"/>
</g>
<rect y="0" class="st4" width="164.4" height="164.4"/>
<g>
	<line class="st0" x1="110.5" y1="58.5" x2="133.6" y2="58.5"/>
	<line class="st0" x1="31.2" y1="58.5" x2="54.5" y2="58.5"/>
	<line class="st0" x1="108.2" y1="69.6" x2="137.9" y2="69.6"/>
	<line class="st0" x1="26.6" y1="69.6" x2="56.4" y2="69.6"/>
	<line class="st0" x1="109.7" y1="80.6" x2="137.9" y2="80.6"/>
	<line class="st0" x1="26.6" y1="80.6" x2="54.7" y2="80.6"/>
	<line class="st0" x1="106.8" y1="91.7" x2="137.9" y2="91.7"/>
	<line class="st0" x1="26.6" y1="91.7" x2="58.1" y2="91.7"/>
	<line class="st0" x1="93" y1="102.7" x2="137.9" y2="102.7"/>
	<line class="st0" x1="26.6" y1="102.7" x2="71.5" y2="102.7"/>
</g>
</svg>
