<svg xmlns="http://www.w3.org/2000/svg" viewBox="0 0 201 49.61"><defs><style>.cls-1{fill:#231815;}.cls-2{fill:none;stroke:#231815;stroke-linecap:round;stroke-miterlimit:10;}</style></defs><title>資產 2</title><g id="圖層_2" data-name="圖層 2"><g id="圖層_1-2" data-name="圖層 1"><path class="cls-1" d="M33.35,1.32a.33.33,0,0,0,.34.34h4.12a1,1,0,1,1,0,2.07H33.67a.33.33,0,0,0-.32.32v.17a1,1,0,0,1-1,1,1,1,0,0,1-1-1V4.05A.32.32,0,0,0,31,3.73H26.34a.32.32,0,0,0-.31.32v.17a1,1,0,0,1-2.07,0V4.05a.33.33,0,0,0-.32-.32H19.5a1,1,0,0,1,0-2.07h4.14A.33.33,0,0,0,24,1.32V1.13a1,1,0,0,1,2.07,0v.19a.33.33,0,0,0,.34.34h4.57a.33.33,0,0,0,.34-.34V1.13a1,1,0,0,1,1-1,1,1,0,0,1,1,1ZM20.26,13.15a1,1,0,1,1,0-2H37.05a1,1,0,1,1,0,2H27.8a.82.82,0,0,0-.7.42L25,17.41a.27.27,0,0,0,.24.39l8.06-.41a.33.33,0,0,0,.29-.46l-.31-.73a.74.74,0,0,1,.68-1,1.65,1.65,0,0,1,1.55,1l1.64,3.72a.75.75,0,0,1-.66,1,1.77,1.77,0,0,1-1.58-1l-.1-.24a.59.59,0,0,0-.54-.32L23,20a1,1,0,0,1-1-1.46l2.66-5a.28.28,0,0,0-.25-.42ZM21.5,7.77a1,1,0,0,1,1-1H34.79a1,1,0,0,1,0,2.07H22.52A1,1,0,0,1,21.5,7.77Z"/><path class="cls-1" d="M57.74,18a.4.4,0,0,0,.36.49h4a1,1,0,0,1,0,2.07H43.86a1,1,0,0,1,0-2.07H48a.38.38,0,0,0,.37-.49l-.78-2.38a.78.78,0,0,1,.73-1,1.56,1.56,0,0,1,1.44,1L50.55,18a.7.7,0,0,0,.69.49h3.65a.72.72,0,0,0,.68-.49l.85-2.36a1.59,1.59,0,0,1,1.49-1.05.77.77,0,0,1,.68,1.05Zm4-17.36a1,1,0,0,1,1,1,1,1,0,0,1-1,1H44.23a1,1,0,0,1-1-1,1,1,0,0,1,1-1ZM60.17,11.11a1.7,1.7,0,0,1-1.75,1.73H47.56a1.7,1.7,0,0,1-1.75-1.73V6.38a1.67,1.67,0,0,1,1.75-1.7H58.42a1.67,1.67,0,0,1,1.75,1.7ZM48.36,6.68a.53.53,0,0,0-.51.51V10.3a.56.56,0,0,0,.51.54h9.26a.56.56,0,0,0,.51-.54V7.19a.53.53,0,0,0-.51-.51Z"/><path class="cls-1" d="M74.74,12.4a.62.62,0,0,1,.56.85l0,.1a.18.18,0,0,0,.18.24H86.6a.88.88,0,1,1,0,1.75H83a.82.82,0,0,0-.7.42l-1.17,2a.33.33,0,0,0,.22.51L84.8,19a1.05,1.05,0,0,1,.85,1.05.69.69,0,0,1-.85.68L80,19.68a2.23,2.23,0,0,0-.93,0L70.29,21a.75.75,0,0,1-.88-.73,1,1,0,0,1,.88-1l4-.63c.09,0,.09-.15,0-.17l-1.15-.27a1.41,1.41,0,0,1-1-2l.2-.42a.33.33,0,0,0-.29-.44H68a.88.88,0,0,1,0-1.75h5a.45.45,0,0,0,.39-.24l0-.1A1.41,1.41,0,0,1,74.74,12.4ZM69.88,9.7a.52.52,0,0,1,.41.82,2.16,2.16,0,0,1-1.66.83h-.22a.51.51,0,0,1-.41-.83,2,2,0,0,1,1.61-.82ZM74,.08a1.76,1.76,0,0,1,1.75,1.78V6.94A1.76,1.76,0,0,1,74,8.72H69.8A1.79,1.79,0,0,1,68,6.94V1.86A1.79,1.79,0,0,1,69.8.08Zm.19,2a.35.35,0,0,0-.34-.36H70a.35.35,0,0,0-.34.36.33.33,0,0,0,.34.34h3.89A.33.33,0,0,0,74.18,2.05Zm-.34,2.7a.33.33,0,0,0,.34-.34.35.35,0,0,0-.34-.36H70a.35.35,0,0,0-.34.36.33.33,0,0,0,.34.34ZM69.61,6.8a.35.35,0,0,0,.34.36h3.89a.37.37,0,0,0,0-.73H70A.35.35,0,0,0,69.61,6.8Zm3.87,3.72a.52.52,0,0,1,.41-.82h.25a2,2,0,0,1,1.63.82.51.51,0,0,1-.39.83h-.25A2.15,2.15,0,0,1,73.48,10.52Zm6.84,5.24a.29.29,0,0,0-.22-.42H74.84a.75.75,0,0,0-.66.44l-.17.39a.4.4,0,0,0,.27.54l4.33.92a.64.64,0,0,0,.71-.29ZM84.9.08a1.78,1.78,0,0,1,1.77,1.78V6.94A1.78,1.78,0,0,1,84.9,8.72H80.71a1.78,1.78,0,0,1-1.78-1.78V1.86A1.78,1.78,0,0,1,80.71.08Zm-4,9.62a.52.52,0,0,1,.42.82,2,2,0,0,1-1.61.83h-.24a.52.52,0,0,1-.42-.83,2,2,0,0,1,1.63-.82Zm4.19-7.65a.35.35,0,0,0-.34-.36H80.9a.35.35,0,0,0-.36.36.33.33,0,0,0,.36.34h3.85A.33.33,0,0,0,85.09,2.05Zm-.34,2.7a.33.33,0,0,0,.34-.34.35.35,0,0,0-.34-.36H80.9a.35.35,0,0,0-.36.36.33.33,0,0,0,.36.34ZM80.54,6.8a.35.35,0,0,0,.36.36h3.85a.37.37,0,0,0,0-.73H80.9A.35.35,0,0,0,80.54,6.8Zm4.7,2.9a2.34,2.34,0,0,1,1.77.82.51.51,0,0,1-.39.83h-.24a2.32,2.32,0,0,1-1.75-.83A.51.51,0,0,1,85,9.7Z"/><path class="cls-1" d="M98.76,13.54a.89.89,0,0,1,.88-1,1.25,1.25,0,0,1,1.22,1l.53,3.51a.88.88,0,0,1-.88,1,1.19,1.19,0,0,1-1.19-1l0-.2a.38.38,0,0,0-.41-.34L93.28,17a.92.92,0,0,1-.92-1.38l2.26-4.34a.61.61,0,0,0-.14-.75L92.94,9.11a2.27,2.27,0,0,1-.46-2.73L94.87,2a2,2,0,0,1,1.77-1,.67.67,0,0,1,.59,1L94.45,7.07a.61.61,0,0,0,.12.75l.91.8a.39.39,0,0,0,.63-.12l.83-1.65a1.94,1.94,0,0,1,1.7-1,.71.71,0,0,1,.63,1L95.4,14.32a.29.29,0,0,0,.29.39l2.76-.27a.45.45,0,0,0,.39-.46Zm7.91-10.49a.51.51,0,0,0,.49.49h2.48a1.71,1.71,0,0,1,1.71,1.75l-.37,13a1,1,0,0,1-1.07,1,1,1,0,0,1-1-1l.34-12.2a.52.52,0,0,0-.48-.48h-1.68a.57.57,0,0,0-.56.48l-1.19,12.37a1.13,1.13,0,0,1-1.15,1,.91.91,0,0,1-.92-1l1.21-12.37a.45.45,0,0,0-.44-.48h-1.43a1,1,0,0,1-1-1,1,1,0,0,1,1-1h1.51a.53.53,0,0,0,.51-.49V1.69a1,1,0,0,1,1-1,1,1,0,0,1,1,1Z"/><path class="cls-1" d="M129.06,17.88a.58.58,0,0,0,.54.53h5.16a.93.93,0,0,1,1,1,.92.92,0,0,1-1,1h-6a1.62,1.62,0,0,1-1.68-1.68V12.84a.62.62,0,0,0-.56-.56h-2.09a.72.72,0,0,0-.69.53l-2.36,6.6a1.53,1.53,0,0,1-1.41,1,.75.75,0,0,1-.75-1l2.41-6.6a.41.41,0,0,0-.39-.53h-1.78a1.65,1.65,0,0,1-1.7-1.68V3.83a2.54,2.54,0,0,1,1.58-2.34L123.12.06a.67.67,0,0,1,.95.63,1.54,1.54,0,0,1-.95,1.43l-2.85,1.12a.86.86,0,0,0-.58.74V5.44c0,.26.36.53.63.53H123a.92.92,0,0,1,1,1,.91.91,0,0,1-1,.95h-2.7a.7.7,0,0,0-.63.56V9.84c0,.27.36.54.63.54h11.25c.27,0,.63-.27.63-.54V8.45a.7.7,0,0,0-.63-.56h-3.26a.91.91,0,0,1-1-.95.92.92,0,0,1,1-1h3.26c.27,0,.63-.27.63-.53V4.34a.76.76,0,0,0-.63-.63h-3.51a.91.91,0,0,1-1-1,.94.94,0,0,1,1-1h4.34a1.66,1.66,0,0,1,1.7,1.7V10.6a1.65,1.65,0,0,1-1.7,1.68h-2.8a.6.6,0,0,0-.54.56Z"/><path class="cls-1" d="M142.05,2.47a1.78,1.78,0,0,1,1.8-1.73h13.68a1.69,1.69,0,0,1,1.73,1.73V19a1,1,0,0,1-2,0V14.2a.58.58,0,0,0-.51-.54h-4.9a.57.57,0,0,0-.53.54v4.38a1,1,0,0,1-1,1,1,1,0,0,1-1-1V14.2a.56.56,0,0,0-.52-.54h-4.67a.58.58,0,0,0-.54.54l-.19,4.8a1,1,0,0,1-1,1,.92.92,0,0,1-1-1Zm1.66,8.66a.57.57,0,0,0,.56.51h4.52a.56.56,0,0,0,.52-.51V8.75a.55.55,0,0,0-.52-.51h-4.4a.57.57,0,0,0-.59.51Zm5.6-7.86a.56.56,0,0,0-.52-.54h-4.18a.68.68,0,0,0-.59.54l-.09,2.41a.56.56,0,0,0,.56.54h4.3a.56.56,0,0,0,.52-.54Zm7.45,2.95a.58.58,0,0,0,.51-.54V3.27a.58.58,0,0,0-.51-.54h-4.9a.57.57,0,0,0-.53.54V5.68a.57.57,0,0,0,.53.54Zm-5.43,4.91a.57.57,0,0,0,.53.51h4.9a.57.57,0,0,0,.51-.51V8.75a.57.57,0,0,0-.51-.51h-4.9a.56.56,0,0,0-.53.51Z"/><path class="cls-1" d="M173.45,18.14a1.74,1.74,0,0,1-1.76,1.76H166a1.72,1.72,0,0,1-1.73-1.76v-5A1.71,1.71,0,0,1,166,11.37h5.74a1.72,1.72,0,0,1,1.76,1.73Zm-7.28-.65a.52.52,0,0,0,.51.48H171a.5.5,0,0,0,.49-.48V13.81a.51.51,0,0,0-.49-.51h-4.33a.53.53,0,0,0-.51.51Zm15-10.23A1.76,1.76,0,0,1,179.36,9H170a1.76,1.76,0,0,1-1.77-1.75V2.39A1.75,1.75,0,0,1,170,.66h9.4a1.75,1.75,0,0,1,1.78,1.73Zm-10.93-.78a.52.52,0,0,0,.48.51h7.94a.53.53,0,0,0,.49-.51V3.17a.53.53,0,0,0-.49-.51h-7.94a.52.52,0,0,0-.48.51Zm14.87,11.66a1.72,1.72,0,0,1-1.73,1.76h-5.74a1.73,1.73,0,0,1-1.75-1.76v-5a1.71,1.71,0,0,1,1.75-1.73h5.74a1.71,1.71,0,0,1,1.73,1.73Zm-7.3-.65a.5.5,0,0,0,.49.48h4.35a.52.52,0,0,0,.51-.48V13.81a.53.53,0,0,0-.51-.51h-4.35a.51.51,0,0,0-.49.51Z"/><path class="cls-1" d="M56.89,31.57c.86,0,1,.3,1,1.13,0,6.71-5.63,8.1-5.63,14.83,0,.47.13.91.13,1.36s-.66.41-1,.41H49c-.58,0-.66-.81-.66-1.24,0-2.56,1.43-4.41,1.43-5.14s-4.86-4.09-4.86-9.73c0-1.6.3-1.62,1.25-1.62h1.71c.4,0,1.21,0,1.21.55,0,.17-.19,1.3-.19,1.67,0,3,2.09,5.79,2.73,5.79s3-3.37,3-5.9c0-.68-.19-1.58-.19-1.75,0-.44.56-.36.86-.36Z"/><path class="cls-1" d="M70.63,31.57c.42,0,1.25.34,1.25,8,0,6.26-1.91,10-6.47,10-4,0-6.46-3.08-6.46-9.45,0-6.82.81-8.59,1.09-8.59h3c.21,0,.47,0,.47.28A26.87,26.87,0,0,0,62.4,39.5c0,4.83,1.75,6.32,3,6.32,1.06,0,3.36-.27,3.36-6.11a23.91,23.91,0,0,0-1-7.86c0-.34.62-.28.81-.28Z"/><path class="cls-1" d="M74.82,49.3c-.54,0-1.18.4-1.18-7.59,0-10.52,1.11-10.14,1.47-10.14h3.63c2.7,0,7.58,3,7.58,11,0,3.69-1.68,6.78-6,6.78ZM77,41.22c0,4.79,1.4,5.35,2.6,5.35s3.3-1.09,3.3-4.92c0-5.26-2.73-7.57-4.11-7.57S77,36.83,77,38.18Z"/><path class="cls-1" d="M93.36,49.61c-4.3,0-6-3.08-6-6.77,0-5.47,3.07-11.59,7.05-11.59s7,6.12,7,11.59c0,3.69-1.68,6.77-6,6.77ZM98,42.37c0-4.71-2.17-7.67-3.6-7.67s-3.6,3-3.6,7.67c0,2.49,1.34,3.45,3.6,3.45S98,44.86,98,42.37Z"/><path class="cls-1" d="M104.24,49.3c-.53,0-1.17.4-1.17-7.59,0-10.52,1.11-10.14,1.47-10.14h5.52c3.77,0,4.34,1.75,4.34,3.11,0,2.34-2.42,3.71-2.42,4.37s3.43,2.47,3.43,6.13c0,2.09-1.26,4.12-4.76,4.12Zm5.2-11.57A3.63,3.63,0,0,0,111,35.36c0-1-.89-1.28-1.7-1.28-2.11,0-3.07.92-3.07,4.24,0,.43,0,1,.56,1a2.79,2.79,0,0,0,1.15-.47Zm-2.22,4.05c-.57.31-.91.44-.91,1.14,0,3.24.81,3.65,2.56,3.65,1.53,0,3.08-.6,3.08-2.26s-1.87-3.64-2.45-3.64a2.29,2.29,0,0,0-.89.36Z"/><path class="cls-1" d="M126.33,49.3c-.19,0-.81.06-.81-.26,0-.6,1.64-2.73,1.64-5.16,0-1-.92-1.32-1.88-1.32-1.94,0-5,.34-5,2.77,0,1.69,1.38,3.5,1.38,3.82,0,.12-.13.15-.4.15h-3c-1.09,0-1.39-1.92-1.39-4.69,0-9.12,6.33-13.36,7.27-13.36.7,0,6.2,3,6.2,12.93,0,5.69-.92,5.12-1.56,5.12Zm-5.61-9.46a.37.37,0,0,0,.41.4,31.46,31.46,0,0,1,4.32-.55c.75,0,1.09-.11,1.09-.71,0-1.32-1.58-4.09-2.39-4.09C123,34.89,120.72,38.28,120.72,39.84Z"/><path class="cls-1" d="M133.2,49.3c-.53,0-1.17.4-1.17-7.59,0-10.52,1.11-10.14,1.47-10.14H139c3.77,0,4.34,1.75,4.34,3.11,0,2.34-2.43,3.71-2.43,4.37s3.43,2.47,3.43,6.13c0,2.09-1.25,4.12-4.75,4.12Zm5.2-11.57a3.63,3.63,0,0,0,1.51-2.37c0-1-.89-1.28-1.7-1.28-2.11,0-3.07.92-3.07,4.24,0,.43,0,1,.55,1a2.69,2.69,0,0,0,1.15-.47Zm-2.22,4.05c-.57.31-.91.44-.91,1.14,0,3.24.81,3.65,2.55,3.65,1.54,0,3.09-.6,3.09-2.26s-1.87-3.64-2.45-3.64a2.23,2.23,0,0,0-.89.36Z"/><path class="cls-1" d="M157.42,31.57c.85,0,1,.3,1,1.13,0,6.71-5.63,8.1-5.63,14.83,0,.47.13.91.13,1.36s-.66.41-1,.41h-2.47c-.58,0-.66-.81-.66-1.24,0-2.56,1.43-4.41,1.43-5.14s-4.86-4.09-4.86-9.73c0-1.6.3-1.62,1.26-1.62h1.7c.41,0,1.22,0,1.22.55,0,.17-.2,1.3-.2,1.67,0,3,2.09,5.79,2.73,5.79s3-3.37,3-5.9c0-.68-.19-1.58-.19-1.75,0-.44.55-.36.85-.36Z"/><polyline class="cls-2" points="38.27 43.34 0.5 43.34 0.5 9.12 11.73 9.12"/><polyline class="cls-2" points="162.73 43.34 200.5 43.34 200.5 9.12 189.27 9.12"/></g></g></svg>