<?xml version="1.0" encoding="utf-8"?>
<!-- Generator: Adobe Illustrator 23.0.0, SVG Export Plug-In . SVG Version: 6.00 Build 0)  -->
<svg version="1.1" id="圖層_1" xmlns="http://www.w3.org/2000/svg" xmlns:xlink="http://www.w3.org/1999/xlink" x="0px" y="0px"
	 viewBox="0 0 164.4 164.4" style="enable-background:new 0 0 164.4 164.4;" xml:space="preserve">
<style type="text/css">
	.st0{fill:none;stroke:#D17A17;stroke-width:3;stroke-miterlimit:10;}
	.st1{fill:#D17A17;}
	.st2{fill:none;}
</style>
<g>
	<path class="st0" d="M93.6,16.7c-3.9,0.9-7.8,1.3-11.8,1.2c-3.9,0-7.9-0.4-11.7-1.2l0,0L60.2,51c-2.2,9.3-1.6,16.2-1.5,21v37.7
		c0,8.2,6.6,14.8,14.8,14.8l0,0h16.9c8.2,0,14.8-6.6,14.8-14.8V70.6c0.1-5.2,0.4-11.7-1.5-19.6L93.6,16.7L93.6,16.7z"/>
	<path class="st0" d="M98.7,13.6c0,2.4-7.5,4.3-16.8,4.3S65.1,16,65.1,13.6V8.9c0-2.4,7.5-4.3,16.8-4.3s16.8,1.9,16.8,4.3V13.6z"/>
	<path class="st0" d="M58.6,63.5c0,0,9.4-9.2,23.4,0c14.6,9.6,23.4,0,23.4,0"/>
</g>
<g>
	<g>
		<path class="st1" d="M40.6,135.1c-0.4-0.3-0.8-0.3-1,0l-5.8,4c-1.3,0.9-2.8,1.4-4.3,1.4c-0.4-0.1-0.8-0.5-0.6-1
			c0-0.1,0.1-0.3,0.3-0.4l8.9-6.1c1.3-0.9,2.8-0.9,4-0.1l9.8,6.4c0.4,0.1,0.5,0.6,0.3,0.9c-0.1,0.3-0.4,0.4-0.6,0.4h-0.1
			c-1.6,0-3.1-0.4-4.4-1.3L40.6,135.1z M44.7,154.5c0.9-0.8,2-1.1,3.3-1.1h0.3c0.4,0,0.8,0.4,0.8,0.8c0,0.3-0.1,0.5-0.3,0.6l-2,1.8
			c-0.3,0.3-0.3,0.6,0,0.9l0,0l1.5,1.8c0.3,0.4,0.3,0.9-0.1,1.1c-0.1,0.1-0.4,0.3-0.5,0.3c-1.1,0-2.1-0.5-2.9-1.3l-5.5-6
			c-0.3-0.3-0.6-0.5-1.1-0.5h-3c-0.4,0-0.6,0.3-0.6,0.6l0,0v3.9c0,0.4,0.3,0.6,0.6,0.6l0,0h1.3c0.8-0.1,1.4,0.4,1.4,1.1
			c0.1,0.8-0.4,1.4-1.1,1.4c-0.1,0-0.3,0-0.4,0h-2c-1.4,0-2.4-1.1-2.4-2.4l0,0v-14.8c0-1.3,1-2.4,2.4-2.4l0,0H38
			c0.4,0,0.6-0.3,0.6-0.6v-1.9c-0.1-0.8,0.4-1.4,1.1-1.5c0.8-0.1,1.4,0.4,1.5,1.1c0,0.1,0,0.3,0,0.4v1.9c0,0.4,0.3,0.6,0.6,0.6h3.8
			c1.3,0,2.4,1,2.4,2.4l0,0v7.1c0,1.4-1,2.4-2.4,2.4l0,0h-2.9c-0.1,0-0.3,0.1-0.3,0.3s0,0.1,0.1,0.3l1.4,1.5
			C44.2,154.8,44.6,154.7,44.7,154.5L44.7,154.5z M45.6,143.9c0-0.4-0.3-0.6-0.6-0.6l0,0h-9.8c-0.4,0-0.6,0.3-0.6,0.6l0,0v0.6
			c0,0.4,0.3,0.6,0.6,0.6H45c0.4,0,0.6-0.3,0.6-0.6V143.9z M35.2,147.8c-0.4,0-0.6,0.3-0.6,0.6l0,0v1c0,0.4,0.3,0.6,0.6,0.6
			c0,0,0,0,0.1,0h9.8c0.4,0,0.6-0.3,0.6-0.6l0,0v-1c0-0.4-0.3-0.6-0.6-0.6l0,0H35.2z"/>
		<path class="st1" d="M63.1,160.4c-2.4,0-4.3-1.9-4.3-4.3c0.1-2.4,2.3-4.1,4.5-4c2.1,0.1,3.8,1.9,4,4
			C67.4,158.5,65.5,160.4,63.1,160.4z M63.1,154.5c-0.9-0.1-1.8,0.5-1.9,1.5c-0.1,0.9,0.5,1.8,1.5,1.9c0.1,0,0.3,0,0.4,0
			c0.9,0.1,1.8-0.5,1.9-1.5c0.1-0.9-0.5-1.8-1.5-1.9C63.4,154.5,63.3,154.5,63.1,154.5z"/>
	</g>
	<path class="st1" d="M101.9,147c0.8,0,1.4,0.6,1.4,1.4c0,0.8-0.6,1.4-1.4,1.4l0,0H91.7c-0.4,0-0.6,0.3-0.6,0.6v8.3
		c0,0.8-0.6,1.4-1.4,1.4l0,0c-0.8,0-1.4-0.6-1.4-1.4l0,0v-8.3c0-0.4-0.3-0.6-0.6-0.6h-9.9c-0.8,0-1.4-0.6-1.4-1.4
		c0-0.8,0.6-1.4,1.4-1.4l0,0h9.9c0.4,0,0.6-0.3,0.6-0.6l0,0v-6c0-0.4-0.3-0.6-0.6-0.6h-5.8c-0.4,0-0.8,0.3-0.9,0.6l-0.5,1.4
		c-0.3,0.9-1.1,1.4-2,1.4c-0.6,0-1-0.5-1-1c0-0.1,0-0.3,0-0.4l2.3-6.6c0.3-0.9,1.1-1.5,2-1.4c0.6,0,1.1,0.5,1,1.1c0,0.1,0,0.3,0,0.3
		l-0.4,1.3c-0.1,0.3,0,0.5,0.3,0.6h0.1h4.8c0.4,0,0.6-0.3,0.6-0.6v-2.6c0-0.8,0.6-1.4,1.4-1.4l0,0c0.8,0,1.4,0.6,1.4,1.4l0,0v2.6
		c0,0.4,0.3,0.6,0.6,0.6H99c0.8,0,1.4,0.6,1.4,1.4l0,0c0,0.8-0.6,1.4-1.4,1.4l0,0h-7.4c-0.4,0-0.6,0.3-0.6,0.6v6
		c0,0.4,0.3,0.6,0.6,0.6l0,0h10.3V147z"/>
	<path class="st1" d="M119.3,140.9c-0.3,4-1.1,7.9-2.5,11.5c0.9,0.8,1.5,1.4,2,1.9s0.5,1.3,0,1.8c-0.6,0.9-1.4,1-2,0.1
		c-0.8-0.9-1-1-1.3-1.3c-1.1,2-2.6,3.8-4.5,5.1c-0.5,0.5-1.4,0.5-1.9,0c-0.1-0.1-0.1-0.1-0.3-0.3c-0.6-0.9-0.5-1.6,0.5-2
		c1.6-1.3,2.9-2.8,3.9-4.5c-0.8-0.6-1.6-1.3-2.5-1.9l0,0c-0.3,0.8-0.8,0.9-1.5,0.5c-0.8-0.4-1-0.9-0.9-1.5c0.5-1.9,1.3-4.9,2-9H109
		c-0.6,0.1-1.3-0.4-1.4-1c0-0.1,0-0.3,0-0.4c-0.1-0.6,0.4-1.3,1-1.4c0.1,0,0.3,0,0.3,0h1.9c0.4-2.3,0.8-4,0.9-5
		c0.1-0.6,0.6-1.1,1.4-1.1c0.1,0,0.1,0,0.3,0c1,0,1.4,0.6,1.1,1.5c0,0.5-0.3,1.4-0.5,2.4c-0.3,1.1-0.4,1.8-0.4,2h3.6
		c0.5,0,1.1,0.1,1.5,0.6C119.2,139.6,119.3,140.2,119.3,140.9z M114.4,150.6c1-2.8,1.8-5.6,2-8.6c0-0.5-0.1-0.8-0.6-0.8h-2.6
		c-0.5,2.4-1.1,4.8-1.8,7.4C112.3,149.3,113.3,149.9,114.4,150.6z M120.8,134.1h8.8c0.5,0,1.1,0.1,1.5,0.5s0.5,0.9,0.5,1.5
		c-0.1,2.5-0.4,4.6-0.5,6.4h2.5c0.6,0,1.3,0.3,1.5,0.9c0.4,1,0.5,2,0.4,3c-0.1,4.3-0.4,7.4-0.8,9.3c-0.1,1.3-0.5,2.5-1.1,3.6
		c-0.3,0.4-0.6,0.6-1,0.9s-0.9,0.3-1.4,0.4c-0.9,0.1-1.8,0.1-2.5,0c-1,0-1.6-0.4-1.9-1.1c0-0.1,0-0.4,0-0.5s0-0.3,0-0.4
		s0.1-0.3,0.3-0.3c0.1-0.1,0.3-0.1,0.4-0.1l0.4-0.1h0.5h1.6c0.5,0,0.9-0.1,1.1-0.5c0.8-0.8,1.3-4.4,1.5-11c0-0.4,0-0.8-0.1-1.1
		s-0.4-0.4-0.5-0.3h-1.4v0.1c0,0.6-0.5,1.1-1.1,1.1c-0.1,0-0.1,0-0.3,0c-0.4,0-0.8-0.1-1-0.3c-0.3-0.1-0.3-0.5-0.3-0.9
		c0.3-2,0.5-4.5,0.8-7.8c0-0.5-0.1-0.8-0.6-0.8h-2.8c0,2.5-0.1,4.8-0.3,6.5s-0.3,3.8-0.6,5.9c-0.3,2-0.8,4-1.4,5.9
		c-0.5,1.6-1.4,3.3-2.3,4.6c-0.3,0.4-0.5,0.6-0.9,0.6s-0.8-0.3-1-0.5c-0.4-0.3-0.5-0.6-0.6-1c0-0.4,0.1-0.8,0.4-1
		c0.9-1.3,1.6-2.8,2-4.3c0.6-1.8,1-3.6,1.1-5.4c0.3-2,0.4-3.9,0.5-5.5s0.1-3.6,0.1-6h-1.9c-0.8,0-1.3-0.6-1.3-1.3
		C119.4,134.7,120.1,134.2,120.8,134.1L120.8,134.1z"/>
</g>
<rect y="0" class="st2" width="164.4" height="164.4"/>
</svg>
