<?xml version="1.0" encoding="utf-8"?>
<!-- Generator: Adobe Illustrator 23.0.0, SVG Export Plug-In . SVG Version: 6.00 Build 0)  -->
<svg version="1.1" id="圖層_1" xmlns="http://www.w3.org/2000/svg" xmlns:xlink="http://www.w3.org/1999/xlink" x="0px" y="0px"
	 viewBox="0 0 164.4 164.4" style="enable-background:new 0 0 164.4 164.4;" xml:space="preserve">
<style type="text/css">
	.st0{fill:none;}
	.st1{fill:#D17A17;}
	.st2{fill:none;stroke:#D17A17;stroke-width:3.97;stroke-miterlimit:10;}
	.st3{fill:none;stroke:#D17A17;stroke-width:7;stroke-miterlimit:10;}
	.st4{fill:#CA791A;}
</style>
<title>toy資產 2</title>
<g>
	<g id="圖層_1-2">
		<rect y="0" class="st0" width="164.4" height="164.4"/>
		<path class="st1" d="M34.2,146.5c0-0.2-0.2-0.3-0.3-0.3l-3.5,0.4c-0.7,0.1-1.3-0.4-1.4-1.1c0-0.3,0-0.5,0.1-0.7l1.1-2.6
			c0.2-0.4,0.1-0.8-0.2-1.2l-0.8-1c-0.9-1.1-1.1-2.6-0.5-3.9l1.3-2.8c0.3-0.7,1-1.1,1.7-1.1c0.4,0,0.7,0.3,0.7,0.8
			c0,0.1,0,0.2-0.1,0.3l-1.8,4c-0.1,0.4-0.1,0.9,0.1,1.3l0.1,0.1c0.2,0.2,0.5,0.2,0.7,0c0,0,0.1-0.1,0.1-0.2l0.5-1.4
			c0.3-0.7,1-1.2,1.8-1.1c0.4,0,0.8,0.3,0.8,0.8c0,0.1,0,0.2-0.1,0.3l-2.7,6.5c-0.1,0.3,0.2,0.6,0.5,0.6l0.9-0.1
			c0.4,0,0.7-0.3,0.7-0.6c0,0,0,0,0,0l-0.1-0.7c-0.1-0.5,0.3-0.9,0.8-1c0,0,0.1,0,0.1,0c0.6,0,1,0.4,1.1,0.9c0,0,0,0.1,0,0.1
			l0.3,3.5c0.1,0.5-0.3,0.9-0.8,1c-0.1,0-0.1,0-0.2,0H35C34.6,147.3,34.2,147,34.2,146.5C34.2,146.5,34.2,146.5,34.2,146.5z
			 M41.5,147.5c0.6-0.1,1.1,0.4,1.2,1c0,0.1,0,0.1,0,0.2v0.1c0.1,0.3,0.3,0.5,0.5,0.5h9.1c0.6-0.1,1.1,0.4,1.2,1c0,0.1,0,0.1,0,0.2
			c0.1,0.6-0.4,1.1-1,1.2c-0.1,0-0.1,0-0.2,0h-5.9c-0.3,0-0.5,0.4-0.3,0.7l5.1,3.6c0.3,0.1,0.4,0.5,0.2,0.7
			c-0.1,0.2-0.3,0.3-0.5,0.3H51c-1.5,0-3-0.4-4.2-1.3l-3.3-2.4c-0.3-0.1-0.6-0.1-0.8,0.2c0,0.1-0.1,0.2-0.1,0.3v4.1
			c0.1,0.7-0.4,1.2-1.1,1.3c-0.7,0.1-1.2-0.4-1.3-1.1c0-0.1,0-0.1,0-0.2V154c0-0.3-0.2-0.5-0.5-0.5c-0.1,0-0.2,0-0.3,0.1l-2.9,2.1
			c-1.2,0.9-2.6,1.4-4.1,1.3c-0.4,0-0.8-0.8-0.3-1l4.9-3.6c0.2-0.3,0.1-0.7-0.3-0.7h-6.4c-0.6,0-1.1-0.4-1.2-1c0-0.1,0-0.1,0-0.2
			c-0.1-0.6,0.4-1.1,1-1.2c0.1,0,0.1,0,0.2,0h9.2c0.3-0.1,0.5-0.3,0.5-0.5v-0.1c-0.1-0.6,0.4-1.1,1-1.2
			C41.4,147.5,41.5,147.5,41.5,147.5L41.5,147.5z M43.6,133.8c1.1-0.1,2.1,0.8,2.2,1.9c0,0.1,0,0.1,0,0.2v8.2c0.1,1.1-0.8,2.1-2,2.2
			c-0.1,0-0.1,0-0.2,0h-4.1c-1.1,0.1-2.1-0.8-2.2-1.9c0-0.1,0-0.2,0-0.2V135c-0.1-0.6,0.4-1.2,1-1.2c0.1,0,0.1,0,0.2,0
			c0.3,0,0.6-0.2,0.7-0.5l0.2-0.4c0.4-0.7,1.1-1.1,1.9-1.1c0.4,0,0.8,0.4,0.7,0.8c0,0.1,0,0.2-0.1,0.4l-0.2,0.3
			c-0.1,0.2,0,0.5,0.3,0.6c0,0,0.1,0,0.2,0L43.6,133.8z M42.9,138.9c0.4-0.1,0.7-0.4,0.8-0.8v-1.4c-0.1-0.4-0.4-0.7-0.8-0.8h-2.7
			c-0.4,0.1-0.7,0.4-0.8,0.8v1.4c0.1,0.4,0.4,0.7,0.8,0.8H42.9z M39.5,143.5c0,0.4,0.3,0.7,0.7,0.7h2.7c0.4,0,0.7-0.4,0.7-0.7V142
			c0-0.4-0.3-0.7-0.7-0.7h-2.7c-0.4,0-0.7,0.4-0.7,0.7L39.5,143.5z M49.3,146.7c-0.7,0.1-1.4-0.5-1.4-1.2c0-0.3,0-0.5,0.1-0.7l1.2-3
			c0.1-0.4,0.1-0.8-0.2-1.1l-0.8-0.9c-0.9-1.1-1.1-2.6-0.5-3.9l1.2-2.6c0.3-0.7,1.1-1.1,1.8-1.1c0.4,0,0.7,0.3,0.7,0.8
			c0,0.1,0,0.2-0.1,0.3l-1.7,3.7c-0.3,0.4-0.2,0.9,0.1,1.3l0.2,0.2c0.2,0.2,0.5,0.2,0.7,0c0,0,0.1-0.1,0.1-0.2l0.4-1.1
			c0.3-0.7,0.9-1.1,1.7-1.2c0.4,0,0.7,0.3,0.8,0.7c0,0.1,0,0.3-0.1,0.4l-2.7,6.6c-0.1,0.3,0.1,0.6,0.4,0.6c0,0,0.1,0,0.1,0l1-0.1
			c0.3-0.1,0.6-0.3,0.6-0.7l-0.1-0.9c-0.1-0.5,0.2-0.9,0.7-1c0.1,0,0.1,0,0.2,0c0.6,0,1.1,0.4,1.2,1l0.5,3.5c0.1,0.4-0.2,0.9-0.6,1
			c-0.1,0-0.2,0-0.3,0h-0.5c-0.3,0-0.6-0.2-0.6-0.5c0,0,0-0.1,0-0.1c0-0.2-0.2-0.3-0.3-0.3L49.3,146.7z"/>
		<path class="st1" d="M63.9,159.5c-2.3,0-4.1-1.8-4.1-4.1c0-2.3,1.8-4.1,4.1-4.1c2.3,0,4.1,1.8,4.1,4.1
			C68,157.7,66.1,159.5,63.9,159.5z M63.9,153.8c-0.9,0-1.6,0.8-1.5,1.6c0,0.9,0.8,1.6,1.6,1.5c0.8,0,1.5-0.7,1.5-1.6
			C65.5,154.5,64.8,153.8,63.9,153.8z"/>
		<path class="st1" d="M78.9,136.3c-0.7,0.1-1.4-0.5-1.4-1.2c-0.1-0.7,0.5-1.4,1.2-1.4c0.1,0,0.2,0,0.2,0h6.4
			c0.7-0.1,1.4,0.5,1.4,1.2c0.1,0.7-0.5,1.4-1.2,1.4c-0.1,0-0.2,0-0.2,0h-1.2c-0.4,0-0.6,0.3-0.6,0.6v3.8c0,0.3,0.3,0.6,0.6,0.6h0
			h0.8c0.7,0.1,1.3,0.7,1.2,1.5c-0.1,0.7-0.6,1.2-1.2,1.2H84c-0.3,0-0.6,0.3-0.6,0.6v5.3c0,0.2,0.2,0.4,0.5,0.4c0,0,0.1,0,0.1,0
			l1.3-0.5c0.5-0.2,1.1,0,1.3,0.6c0,0.1,0.1,0.3,0.1,0.4c0,0.9-0.6,1.7-1.4,2l-6.2,2.3c-0.5,0.2-1.1,0-1.3-0.6
			c0-0.1-0.1-0.3-0.1-0.4c0-0.9,0.5-1.7,1.4-2l1.2-0.4c0.3-0.1,0.6-0.5,0.6-0.8v-6.3c0-0.3-0.2-0.6-0.6-0.6h-0.8
			c-0.7,0.1-1.4-0.5-1.5-1.2c-0.1-0.7,0.5-1.4,1.2-1.5c0.1,0,0.2,0,0.2,0h0.8c0.3,0,0.6-0.3,0.6-0.6l0,0v-3.8c0-0.3-0.2-0.6-0.6-0.6
			c0,0,0,0,0,0L78.9,136.3z M100.6,155.4c0,0.3,0.3,0.6,0.6,0.6c0,0,0,0,0,0h2.8c0.8,0,1.4,0.6,1.4,1.3c0,0,0,0,0,0
			c0,0.8-0.6,1.4-1.4,1.4h-3.9c-1.3,0-2.3-1.1-2.3-2.3v-11.7c0-0.3-0.3-0.6-0.6-0.6c0,0,0,0,0,0h-1.4c-0.3,0-0.6,0.3-0.7,0.6
			l-1.9,12.6c-0.1,0.8-0.8,1.4-1.6,1.4c-0.7,0-1.2-0.5-1.2-1.2c0-0.1,0-0.1,0-0.2l1.9-12.6c0-0.3-0.2-0.6-0.5-0.6c0,0,0,0-0.1,0
			h-1.6c-0.8,0-1.4-0.6-1.4-1.4c0-0.8,0.6-1.4,1.4-1.4h13.5c0.8,0,1.4,0.6,1.4,1.3c0,0,0,0,0,0c0,0.8-0.6,1.4-1.4,1.4h-2.6
			c-0.3,0-0.6,0.2-0.6,0.6c0,0,0,0,0,0V155.4z M102.4,133.6c0.8,0.1,1.3,0.7,1.3,1.5c-0.1,0.7-0.6,1.2-1.3,1.3H91.6
			c-0.8-0.1-1.3-0.7-1.3-1.5c0.1-0.7,0.6-1.2,1.3-1.3H102.4z"/>
		<path class="st1" d="M111.1,153.4c0-0.7,0.6-1.3,1.3-1.3h22.3c0.7,0,1.3,0.6,1.3,1.3c0,0,0,0,0,0c0,0.7-0.6,1.3-1.3,1.3h-22.3
			C111.7,154.7,111.1,154.1,111.1,153.4L111.1,153.4z M114.2,160.1c-0.6,0-1-0.4-1.1-0.9c0-0.2,0.1-0.5,0.2-0.7l0.3-0.5
			c0.6-1,1.7-1.6,2.9-1.6c0.6,0,1,0.5,1,1.1c0,0.2-0.1,0.4-0.2,0.5l-0.3,0.5C116.4,159.5,115.3,160.1,114.2,160.1z M129.9,133.1
			c1.3,0,2.3,1,2.3,2.3c0,0,0,0,0,0v12.2c0,1.3-1,2.3-2.3,2.3c0,0,0,0,0,0h-12.6c-1.3,0-2.3-1-2.3-2.3c0,0,0,0,0,0v-12.2
			c0-1.3,1-2.3,2.3-2.3c0,0,0,0,0,0H129.9z M129.6,136.3c0-0.3-0.3-0.6-0.6-0.6l0,0h-11c-0.3,0-0.6,0.3-0.6,0.6c0,0,0,0,0,0v0.9
			c0,0.3,0.3,0.6,0.6,0.6h11c0.3,0,0.6-0.3,0.6-0.6V136.3z M118.1,140.5c-0.4,0-0.6,0.3-0.6,0.6v0.9c0,0.4,0.3,0.6,0.6,0.6h11
			c0.3,0,0.6-0.3,0.6-0.6v-0.8c0-0.3-0.3-0.6-0.6-0.6L118.1,140.5z M117.4,146.8c0,0.3,0.3,0.6,0.6,0.6h11c0.3,0,0.6-0.3,0.6-0.6
			V146c0-0.3-0.3-0.6-0.6-0.6c0,0,0,0,0,0h-11c-0.3,0-0.6,0.2-0.6,0.6c0,0,0,0,0,0V146.8z M129.8,158c-0.3-0.4-0.2-1.1,0.2-1.4
			c0.2-0.1,0.4-0.2,0.6-0.2c1.2,0,2.4,0.6,3.1,1.6l0.4,0.5c0.3,0.4,0.2,1.1-0.2,1.4c-0.2,0.1-0.4,0.2-0.6,0.2
			c-1.2,0-2.4-0.6-3.1-1.6L129.8,158z"/>
		<line class="st2" x1="82.2" y1="69.7" x2="82.2" y2="42.8"/>
		<line class="st2" x1="86.3" y1="71.3" x2="105" y2="57.2"/>
		<line class="st2" x1="78.2" y1="71.3" x2="59.4" y2="57.2"/>
		<path class="st2" d="M94.9,17.5c-3.6-3.6-9.4-3.6-12.9,0c-3.6-3.6-9.4-3.6-12.9,0s-3.6,9.4,0,12.9L82,43.4l12.9-12.9
			C98.5,26.9,98.5,21.1,94.9,17.5C94.9,17.5,94.9,17.5,94.9,17.5z"/>
		<path class="st2" d="M131.8,49c0-5-4.1-9.1-9.1-9.1c0-5.1-4.1-9.2-9.2-9.2s-9.2,4.1-9.2,9.2v18.3h18.3
			C127.7,58.2,131.8,54.1,131.8,49C131.8,49,131.8,49,131.8,49z"/>
		<path class="st2" d="M32.6,49c0-5,4.1-9.1,9.1-9.1c0-5.1,4.1-9.1,9.2-9.1c5.1,0,9.1,4.1,9.1,9.1v18.3H41.7
			C36.7,58.2,32.6,54.1,32.6,49C32.6,49,32.6,49,32.6,49z"/>
		<circle class="st3" cx="81.7" cy="96" r="17.5"/>
		<circle class="st4" cx="81.7" cy="73.9" r="7"/>
	</g>
</g>
</svg>
